<svg class="thumb" width="1000" height="1000" viewBox="0,0,600,600" xmlns="http://www.w3.org/2000/svg" xmlns:inkscape="http://www.inkscape.org/namespaces/inkscape" xmlns:sodipodi="http://sodipodi.sourceforge.net/DTD/sodipodi-0.dtd" xmlns:xlink="http://www.w3.org/1999/xlink" xmlns:ns1="http://www.inkscape.org/namespaces/inkscape" xmlns:sketch="http://www.bohemiancoding.com/sketch/ns">
  <defs></defs>
  <g transform="matrix(0.7783,0,0,0.7783,-25.3301,256.0892)">
    <g transform="matrix(1.042,0,0,1.0406,65.881,0.7468)">
      <svg width="107" height="107" viewBox="-3.5,-3.5,107,107">
        <defs>
          <linearGradient x1="0" y1="0.5" x2="1" y2="0.5" id="linearGradientSjzzgmsa84">
            <stop offset="0%" stop-color="#306998"></stop>
            <stop offset="100%" stop-color="#306998"></stop>
          </linearGradient>
        </defs>
        <g></g>
        <g></g>
        <g></g>
        <g>
          <path d="M50,98.5C23.2,98.5,1.5,76.8,1.5,50C1.5,23.2,23.2,1.5,50,1.5c26.8,0,48.5,21.8,48.5,48.5C98.5,76.8,76.8,98.5,50,98.5z      M50,3C24.1,3,3,24.1,3,50c0,25.9,21.1,47,47,47c25.9,0,47-21.1,47-47C97,24.1,75.9,3,50,3z" stroke="none" fill="url('#linearGradientSjzzgmsa84')" style=""></path>
        </g>
      </svg>
    </g>
    <g transform="matrix(1.042,0,0,1.0406,76.436,19.5987)">
      <svg width="84.9" height="20.6" viewBox="7.5,14,84.9,20.6">
        <defs>
          <linearGradient x1="0" y1="0.5" x2="1" y2="0.5" id="linearGradientSjzzgmsa8a">
            <stop offset="0%" stop-color="#306998"></stop>
            <stop offset="100%" stop-color="#306998"></stop>
          </linearGradient>
        </defs>
        <g></g>
        <g></g>
        <g></g>
        <g>
          <path d="M49.3,29.6c-5.4,0-10.3-0.6-14.4-1.3c-13.2-2.5-21.9-7.6-22.4-8.2l0.1-1l1.1,1.1l-0.5-0.5l0.8,0c0-0.3-0.2-0.5-0.2-0.5    c0.3,0.2,2.5,1.6,6.3,3.2c3.4,1.4,8.9,3.4,15.8,4.6c11.8,2.1,30.3,2.4,50.8-8l0.7,1.4C73.2,27.4,60,29.6,49.3,29.6z" stroke="none" fill="url('#linearGradientSjzzgmsa8a')" style=""></path>
        </g>
      </svg>
    </g>
    <g transform="matrix(1.042,0,0,1.0406,76.436,72.4305)">
      <svg width="84.69999999999999" height="20.725944555873937" viewBox="7.600000000000003,64.77405544412606,84.69999999999999,20.725944555873937">
        <defs>
          <linearGradient x1="0" y1="0.5" x2="1" y2="0.5" id="linearGradientSjzzgmsa8g">
            <stop offset="0%" stop-color="#306998"></stop>
            <stop offset="100%" stop-color="#306998"></stop>
          </linearGradient>
        </defs>
        <g></g>
        <g></g>
        <g></g>
        <g>
          <path d="M86.7,80.5c-20.5-10.4-38.9-10.1-50.8-8c-6.9,1.2-12.4,3.2-15.8,4.6c-3.8,1.6-6,3-6.3,3.2c0,0,0.2-0.2,0.2-0.5l-0.8,0    l-0.5,0.5l-0.1-1c0.5-0.6,9.2-5.8,22.4-8.2c12.2-2.3,31.2-2.7,52.3,8L86.7,80.5z" stroke="none" fill="url('#linearGradientSjzzgmsa8g')" style=""></path>
        </g>
      </svg>
    </g>
    <g transform="matrix(1.042,0,0,1.0406,114.469,1.7874)">
      <svg width="11.5" height="105.6" viewBox="44.2,-2.8,11.5,105.6">
        <defs>
          <linearGradient x1="0" y1="0.5" x2="1" y2="0.5" id="linearGradientSjzzgmsa8m">
            <stop offset="0%" stop-color="#306998"></stop>
            <stop offset="100%" stop-color="#306998"></stop>
          </linearGradient>
        </defs>
        <g></g>
        <g></g>
        <g></g>
        <g>
          <rect x="49.2" y="2.2" width="1.5" height="95.6" stroke="none" fill="url('#linearGradientSjzzgmsa8m')" style=""></rect>
        </g>
      </svg>
    </g>
    <g transform="matrix(1.2719,0,0,0.8464,66.2999,31.1609)">
      <svg width="87.4" height="58.4" viewBox="6.300000000000001,21.1,87.4,58.4">
        <defs>
          <linearGradient x1="0" y1="0.5" x2="1" y2="0.5" id="linearGradientSjzzgmsa8s">
            <stop offset="0%" stop-color="#9a0606"></stop>
            <stop offset="100%" stop-color="#9a0606"></stop>
          </linearGradient>
        </defs>
        <g></g>
        <g></g>
        <g></g>
        <g>
          <polygon points="29.8,47.6 41.8,74.5 54.7,37.6 65.4,64.8 73.5,55.4 88.7,55.4 88.7,51.4 71.6,51.4 66.7,57.1 54.5,26.1 41.4,63.7    30.5,39.3 22.6,51.4 11.3,51.4 11.3,55.4 24.7,55.4  " stroke="none" fill="url('#linearGradientSjzzgmsa8s')" style=""></polygon>
        </g>
      </svg>
    </g>
    <g transform="matrix(0.7245,0,0,0.7245,192.5282,10.544)">
      <svg width="792.919921875" height="191" style="overflow: visible;">
        <defs>
          <linearGradient x1="0" y1="0.5" x2="1" y2="0.5" id="linearGradientSjzzgmsa810">
            <stop offset="0%" stop-color="#306998"></stop>
            <stop offset="100%" stop-color="#306998"></stop>
          </linearGradient>
        </defs>
        <g transform="matrix(1,0,0,1,0,98.25)">
          <path d="M 60.06-33.54L 60.06-8.06Q 56.93-4.79  50.83-1.88Q 44.73 1.03  34.96 1.03L 34.96 1.03Q 20.7 1.03  11.69-8.98Q 2.69-18.99  2.69-34.96L 2.69-34.96L 2.69-36.13Q 2.69-52.2  11.6-62.16Q 20.51-72.12  35.3-72.12L 35.3-72.12Q 43.21-72.12  49.19-69.65Q 55.18-67.19  59.28-63.13L 59.28-63.13L 59.28-50.24L 52.54-50.24L 50.2-60.06Q 47.8-62.01  44.41-63.28Q 41.02-64.55  36.28-64.55L 36.28-64.55Q 24.76-64.55  18.53-56.67Q 12.3-48.78  12.3-36.23L 12.3-36.23L 12.3-34.96Q 12.3-22.22  18.33-14.36Q 24.37-6.49  34.96-6.49L 34.96-6.49Q 40.77-6.49  44.48-7.71Q 48.19-8.94  50.44-10.4L 50.44-10.4L 50.44-25.98L 38.77-26.46L 38.77-33.54L 60.06-33.54ZM 96.19460937499998 1.03L 96.19460937499998 1.03Q 85.15460937499998 1.03  78.63460937499998-6.32Q 72.11460937499999-13.67  72.11460937499999-25.39L 72.11460937499999-25.39L 72.11460937499999-27.54Q 72.11460937499999-38.82  78.83460937499999-46.31Q 85.544609375-53.81  94.72460937499999-53.81L 94.72460937499999-53.81Q 105.37460937499998-53.81  110.86460937499999-47.36Q 116.354609375-40.92  116.354609375-30.18L 116.354609375-30.18L 116.354609375-24.17L 82.08460937499999-24.17L 81.93460937499998-23.93Q 82.08460937499999-16.31  85.794609375-11.4Q 89.50460937499999-6.49  96.19460937499998-6.49L 96.19460937499998-6.49Q 101.074609375-6.49  104.76460937499999-7.89Q 108.44460937499998-9.28  111.13460937499998-11.72L 111.13460937499998-11.72L 114.89460937499999-5.47Q 112.06460937499999-2.73  107.39460937499999-0.85Q 102.73460937499999 1.03  96.19460937499998 1.03ZM 94.72460937499999-46.24L 94.72460937499999-46.24Q 89.89460937499999-46.24  86.47460937499999-42.16Q 83.05460937499998-38.09  82.27460937499998-31.93L 82.27460937499998-31.93L 82.37460937499999-31.69L 106.73460937499999-31.69L 106.73460937499999-32.96Q 106.73460937499999-38.62  103.71460937499998-42.43Q 100.68460937499998-46.24  94.72460937499999-46.24ZM 125.87437499999994-25.83L 125.87437499999994-26.9Q 125.87437499999994-38.62  132.22437499999995-46.22Q 138.57437499999995-53.81  149.46437499999993-53.81L 149.46437499999993-53.81Q 160.40437499999996-53.81  166.77437499999994-46.24Q 173.14437499999994-38.67  173.14437499999994-26.9L 173.14437499999994-26.9L 173.14437499999994-25.83Q 173.14437499999994-14.01  166.79437499999995-6.49Q 160.44437499999995 1.03  149.56437499999993 1.03L 149.56437499999993 1.03Q 138.57437499999995 1.03  132.22437499999995-6.52Q 125.87437499999994-14.06  125.87437499999994-25.83L 125.87437499999994-25.83ZM 135.49437499999993-26.9L 135.49437499999993-25.83Q 135.49437499999993-17.43  139.03437499999995-11.96Q 142.57437499999995-6.49  149.56437499999993-6.49L 149.56437499999993-6.49Q 156.39437499999994-6.49  159.96437499999993-11.96Q 163.52437499999994-17.43  163.52437499999994-25.83L 163.52437499999994-25.83L 163.52437499999994-26.9Q 163.52437499999994-35.21  159.96437499999993-40.72Q 156.39437499999994-46.24  149.46437499999993-46.24L 149.46437499999993-46.24Q 142.52437499999994-46.24  139.01437499999994-40.72Q 135.49437499999993-35.21  135.49437499999993-26.9L 135.49437499999993-26.9ZM 189.01789062499998-63.53L 181.05789062499997-64.89L 181.05789062499997-71.09L 206.58789062499997-71.09L 206.58789062499997-64.89L 198.62789062499996-63.53L 198.62789062499996-38.96L 233.10789062499998-38.96L 233.10789062499998-63.53L 225.14789062499997-64.89L 225.14789062499997-71.09L 233.10789062499998-71.09L 242.727890625-71.09L 250.68789062499997-71.09L 250.68789062499997-64.89L 242.727890625-63.53L 242.727890625-7.52L 250.68789062499997-6.15L 250.68789062499997 0L 225.14789062499997 0L 225.14789062499997-6.15L 233.10789062499998-7.52L 233.10789062499998-31.4L 198.62789062499996-31.4L 198.62789062499996-7.52L 206.58789062499997-6.15L 206.58789062499997 0L 181.05789062499997 0L 181.05789062499997-6.15L 189.01789062499998-7.52L 189.01789062499998-63.53ZM 282.8645312499999 1.03L 282.8645312499999 1.03Q 271.82453124999995 1.03  265.30453124999997-6.32Q 258.78453124999993-13.67  258.78453124999993-25.39L 258.78453124999993-25.39L 258.78453124999993-27.54Q 258.78453124999993-38.82  265.50453124999996-46.31Q 272.21453124999994-53.81  281.39453124999994-53.81L 281.39453124999994-53.81Q 292.0445312499999-53.81  297.53453124999993-47.36Q 303.02453124999994-40.92  303.02453124999994-30.18L 303.02453124999994-30.18L 303.02453124999994-24.17L 268.75453124999996-24.17L 268.6045312499999-23.93Q 268.75453124999996-16.31  272.46453124999994-11.4Q 276.17453125-6.49  282.8645312499999-6.49L 282.8645312499999-6.49Q 287.74453124999997-6.49  291.43453124999996-7.89Q 295.1145312499999-9.28  297.80453124999997-11.72L 297.80453124999997-11.72L 301.56453124999996-5.47Q 298.7345312499999-2.73  294.06453124999996-0.85Q 289.40453124999993 1.03  282.8645312499999 1.03ZM 281.39453124999994-46.24L 281.39453124999994-46.24Q 276.56453124999996-46.24  273.14453124999994-42.16Q 269.7245312499999-38.09  268.94453124999995-31.93L 268.94453124999995-31.93L 269.0445312499999-31.69L 293.40453124999993-31.69L 293.40453124999993-32.96Q 293.40453124999993-38.62  290.38453124999995-42.43Q 287.3545312499999-46.24  281.39453124999994-46.24ZM 359.5742968749999 0L 346.9742968749999 0Q 346.5342968749999-2.15  346.2842968749999-3.86Q 346.0442968749999-5.57  345.9442968749999-7.28L 345.9442968749999-7.28Q 343.1642968749999-3.71  338.98429687499987-1.34Q 334.8142968749999 1.03  330.0742968749999 1.03L 330.0742968749999 1.03Q 321.8242968749999 1.03  317.5342968749999-3Q 313.23429687499987-7.03  313.23429687499987-14.36L 313.23429687499987-14.36Q 313.23429687499987-21.88  319.3142968749999-25.95Q 325.3942968749999-30.03  335.98429687499987-30.03L 335.98429687499987-30.03L 345.8942968749999-30.03L 345.8942968749999-36.18Q 345.8942968749999-40.82  342.9642968749999-43.53Q 340.0342968749999-46.24  334.8142968749999-46.24L 334.8142968749999-46.24Q 331.2042968749999-46.24  328.4442968749999-45.31Q 325.68429687499986-44.38  323.9742968749999-42.77L 323.9742968749999-42.77L 322.9442968749999-37.21L 315.5242968749999-37.21L 315.5242968749999-47.46Q 319.1442968749999-50.34  324.2642968749999-52.08Q 329.3942968749999-53.81  335.4042968749999-53.81L 335.4042968749999-53.81Q 344.3842968749999-53.81  349.9542968749999-49.22Q 355.5142968749999-44.63  355.5142968749999-36.08L 355.5142968749999-36.08L 355.5142968749999-10.64Q 355.5142968749999-9.62  355.5442968749999-8.64Q 355.56429687499985-7.67  355.6642968749999-6.69L 355.6642968749999-6.69L 359.5742968749999-6.15L 359.5742968749999 0ZM 331.49429687499986-7.03L 331.49429687499986-7.03Q 336.2842968749999-7.03  340.23429687499987-9.33Q 344.1942968749999-11.62  345.8942968749999-14.84L 345.8942968749999-14.84L 345.8942968749999-23.54L 335.6442968749999-23.54Q 329.73429687499987-23.54  326.2942968749999-20.8Q 322.8542968749999-18.07  322.8542968749999-14.16L 322.8542968749999-14.16Q 322.8542968749999-10.69  325.0042968749999-8.86Q 327.1442968749999-7.03  331.49429687499986-7.03ZM 374.2224218749999-68.6L 366.26242187499986-69.97L 366.26242187499986-76.17L 383.8424218749999-76.17L 383.8424218749999-7.52L 391.7924218749999-6.15L 391.7924218749999 0L 366.26242187499986 0L 366.26242187499986-6.15L 374.2224218749999-7.52L 374.2224218749999-68.6ZM 406.2465624999999-65.58L 415.86656249999993-65.58L 415.86656249999993-52.83L 425.8765624999999-52.83L 425.8765624999999-45.7L 415.86656249999993-45.7L 415.86656249999993-13.62Q 415.86656249999993-9.91  417.40656249999995-8.4Q 418.9465624999999-6.88  421.48656249999993-6.88L 421.48656249999993-6.88Q 422.7565625-6.88  424.33656249999996-7.1Q 425.92656249999993-7.32  427.0065625-7.57L 427.0065625-7.57L 428.3165624999999-0.98Q 426.95656249999996-0.1  424.3165624999999 0.46Q 421.67656249999993 1.03  419.04656249999994 1.03L 419.04656249999994 1.03Q 413.1865624999999 1.03  409.71656249999995-2.51Q 406.2465624999999-6.05  406.2465624999999-13.62L 406.2465624999999-13.62L 406.2465624999999-45.7L 397.89656249999996-45.7L 397.89656249999996-52.83L 406.2465624999999-52.83L 406.2465624999999-65.58ZM 434.37765625 0L 434.37765625-6.15L 442.33765625-7.52L 442.33765625-68.6L 434.37765625-69.97L 434.37765625-76.17L 451.95765625-76.17L 451.95765625-45.8Q 454.68765625-49.61  458.63765625-51.71Q 462.59765625-53.81  467.42765625-53.81L 467.42765625-53.81Q 475.92765625-53.81  480.61765625-48.73Q 485.30765625-43.65  485.30765625-33.11L 485.30765625-33.11L 485.30765625-7.52L 493.25765624999997-6.15L 493.25765624999997 0L 467.72765625 0L 467.72765625-6.15L 475.68765625000003-7.52L 475.68765625000003-33.2Q 475.68765625000003-39.75  472.87765625-42.87Q 470.06765625-46  464.49765625-46L 464.49765625-46Q 460.54765625-46  457.29765625-44.12Q 454.05765625-42.24  451.95765625-39.01L 451.95765625-39.01L 451.95765625-7.52L 459.90765625-6.15L 459.90765625 0L 434.37765625 0ZM 554.4884375-61.91L 554.4884375-49.27L 547.7084375-49.27L 545.8984375-59.33Q 543.5584375-61.62  540.1384375-63.09Q 536.7184375-64.55  531.9784375-64.55L 531.9784375-64.55Q 520.8984375-64.55  514.9384375-56.52Q 508.9884375-48.49  508.9884375-36.13L 508.9884375-36.13L 508.9884375-35.01Q 508.9884375-22.66  514.8184375-14.58Q 520.6584375-6.49  531.0084375-6.49L 531.0084375-6.49Q 535.8384375-6.49  539.7984375-8.01Q 543.7484375-9.52  545.8984375-11.72L 545.8984375-11.72L 547.7084375-21.78L 554.4884375-21.78L 554.4884375-9.13Q 551.4184375-5.18  545.2684375-2.08Q 539.1084375 1.03  531.0084375 1.03L 531.0084375 1.03Q 517.1384375 1.03  508.2484375-9.23Q 499.3684375-19.48  499.3684375-35.01L 499.3684375-35.01L 499.3684375-36.04Q 499.3684375-51.66  508.1084375-61.89Q 516.8484375-72.12  531.0084375-72.12L 531.0084375-72.12Q 539.1084375-72.12  545.2684375-68.97Q 551.4184375-65.82  554.4884375-61.91L 554.4884375-61.91ZM 563.430390625 0L 563.430390625-6.15L 571.390390625-7.52L 571.390390625-68.6L 563.430390625-69.97L 563.430390625-76.17L 581.010390625-76.17L 581.010390625-45.8Q 583.740390625-49.61  587.690390625-51.71Q 591.650390625-53.81  596.480390625-53.81L 596.480390625-53.81Q 604.980390625-53.81  609.670390625-48.73Q 614.360390625-43.65  614.360390625-33.11L 614.360390625-33.11L 614.360390625-7.52L 622.310390625-6.15L 622.310390625 0L 596.780390625 0L 596.780390625-6.15L 604.740390625-7.52L 604.740390625-33.2Q 604.740390625-39.75  601.930390625-42.87Q 599.120390625-46  593.550390625-46L 593.550390625-46Q 589.600390625-46  586.350390625-44.12Q 583.110390625-42.24  581.010390625-39.01L 581.010390625-39.01L 581.010390625-7.52L 588.960390625-6.15L 588.960390625 0L 563.430390625 0ZM 652.9328906249999 1.03L 652.9328906249999 1.03Q 641.8928906249998 1.03  635.3728906249999-6.32Q 628.8528906249999-13.67  628.8528906249999-25.39L 628.8528906249999-25.39L 628.8528906249999-27.54Q 628.8528906249999-38.82  635.5728906249999-46.31Q 642.2828906249999-53.81  651.4628906249999-53.81L 651.4628906249999-53.81Q 662.1128906249999-53.81  667.6028906249999-47.36Q 673.0928906249999-40.92  673.0928906249999-30.18L 673.0928906249999-30.18L 673.0928906249999-24.17L 638.8228906249999-24.17L 638.6728906249999-23.93Q 638.8228906249999-16.31  642.5328906249999-11.4Q 646.2428906249999-6.49  652.9328906249999-6.49L 652.9328906249999-6.49Q 657.8128906249999-6.49  661.5028906249998-7.89Q 665.1828906249999-9.28  667.8728906249999-11.72L 667.8728906249999-11.72L 671.6328906249998-5.47Q 668.8028906249999-2.73  664.1328906249998-0.85Q 659.4728906249999 1.03  652.9328906249999 1.03ZM 651.4628906249999-46.24L 651.4628906249999-46.24Q 646.6328906249998-46.24  643.2128906249999-42.16Q 639.7928906249999-38.09  639.0128906249998-31.93L 639.0128906249998-31.93L 639.1128906249999-31.69L 663.4728906249999-31.69L 663.4728906249999-32.96Q 663.4728906249999-38.62  660.4528906249999-42.43Q 657.4228906249999-46.24  651.4628906249999-46.24ZM 706.3026562499999-6.49L 706.3026562499999-6.49Q 711.0826562499999-6.49  714.7226562499999-9.45Q 718.3626562499999-12.4  718.3626562499999-16.7L 718.3626562499999-16.7L 727.0026562499999-16.7L 727.1026562499999-16.41Q 727.3426562499999-9.57  721.0226562499998-4.27Q 714.6926562499999 1.03  706.3026562499999 1.03L 706.3026562499999 1.03Q 694.7726562499998 1.03  688.6926562499999-6.49Q 682.6126562499999-14.01  682.6126562499999-25.39L 682.6126562499999-25.39L 682.6126562499999-27.44Q 682.6126562499999-38.72  688.7226562499999-46.26Q 694.8226562499999-53.81  706.3026562499999-53.81L 706.3026562499999-53.81Q 712.6426562499998-53.81  717.7026562499999-51.71Q 722.7526562499999-49.61  726.0726562499999-45.95L 726.0726562499999-45.95L 726.5126562499998-34.23L 718.8526562499999-34.23L 716.7526562499999-42.53Q 715.0426562499999-44.19  712.3526562499999-45.21Q 709.6726562499999-46.24  706.3026562499999-46.24L 706.3026562499999-46.24Q 698.7326562499999-46.24  695.4826562499999-40.8Q 692.2326562499999-35.35  692.2326562499999-27.44L 692.2326562499999-27.44L 692.2326562499999-25.39Q 692.2326562499999-17.29  695.4626562499999-11.89Q 698.6826562499999-6.49  706.3026562499999-6.49ZM 743.1189062499999-68.6L 735.1589062499999-69.97L 735.1589062499999-76.17L 752.7389062499999-76.17L 752.7389062499999-32.03L 758.8889062499999-32.03L 770.1689062499998-46L 765.3289062499999-46.63L 765.3289062499999-52.83L 787.4489062499999-52.83L 787.4489062499999-46.63L 781.0089062499999-45.36L 767.0889062499999-28.76L 784.0289062499999-7.32L 790.0389062499999-6.15L 790.0389062499999 0L 768.1189062499999 0L 768.1189062499999-6.15L 773.0489062499998-6.79L 759.0289062499999-24.37L 752.7389062499999-24.37L 752.7389062499999-7.52L 760.6889062499998-6.15L 760.6889062499998 0L 735.1589062499999 0L 735.1589062499999-6.15L 743.1189062499999-7.52L 743.1189062499999-68.6Z" data-textpath="GeoHealthCheck" data-text-anchor="middle" data-font-size="100" data-letterspacing="0" data-side="left" data-offset="0.5" data-dx="0" data-dy="0" data-xmlspace="preserve" data-href="" data-font="Roboto Slab" data-font-src="/Content/clientfonts/robotoslab.woff" data-font-scale="contain" transform="translate(0,0)" data-x="0" data-y="0" fill="url('#linearGradientSjzzgmsa810')"></path>
        </g>
      </svg>
    </g>
  </g>
</svg>